/* XPM */
static char *f4bf38ea61d64486fdde9c44fe5e7eeeBaKoD2FD9E92rcEl[] = {
/* columns rows colors chars-per-pixel */
"128 128 6 1 ",
"  c black",
". c #1D1D1D",
"X c #313131",
"o c gray29",
"O c #767676",
"+ c #973D3D",
/* pixels */
"OOOOOOOOOOOOOOOOOOOOOOOOOOOOOOOOOOOOOOOOOOOOOOXXoooooooooooooooooooooo..ooooooooXX++++++++++++++++++++++++OOOOOOOOOOOOOOOOOOOOOO",
"OOOOOOOOOOOOOOOOOOOOOOOOOOOOOOOOOOOOOOOOOOOOOOXXoooooooooooooooooooooo..ooooooooXX++++++++++++++++++++++++OOOOOOOOOOOOOOOOOOOOOO",
"OOOOOOOOOOOOOOOOOOOOOOOOOOOOOOOOOOOOOOOOOOOOOOXXoooooooo................ooooooooXX++++++++++++++++++++++++OOOOOOOOOOOOOOOOOOOOOO",
"OOOOOOOOOOOOOOOOOOOOOOOOOOOOOOOOOOOOOOOOOOOOOOXXoooooooo................ooooooooXX++++++++++++++++++++++++OOOOOOOOOOOOOOOOOOOOOO",
"OOOOOOOOOOOOOOOOOOOOOOOOOOOOOOOOOOOOOOOOOOOOOOXXoooooooo....XXXXooooooooooooooooXX++++++++++++++++++++++++OOOOOOOOOOOOOOOOOOOOOO",
"OOOOOOOOOOOOOOOOOOOOOOOOOOOOOOOOOOOOOOOOOOOOOOXXoooooooo....XXXXooooooooooooooooXX++++++++++++++++++++++++OOOOOOOOOOOOOOOOOOOOOO",
"OOOOOOOOOOOOOOOOOOOOOOOOOOOOOOOOOOOOOOOOOOOOOOXXoooooooo....XXooooooooooooooooooXX++++++++++++++++++++++++OOOOOOOOOOOOOOOOOOOOOO",
"OOOOOOOOOOOOOOOOOOOOOOOOOOOOOOOOOOOOOOOOOOOOOOXXoooooooo....XXooooooooooooooooooXX++++++++++++++++++++++++OOOOOOOOOOOOOOOOOOOOOO",
"OOOOOOOOOOOOOOOOOOOOOOOOOOOOOOOOOOOOOOOOOOOOOOXXoooooooo....XXooooooooooooooooooXX++++++++++++++++++++++++OOOOOOOOOOOOOOOOOOOOOO",
"OOOOOOOOOOOOOOOOOOOOOOOOOOOOOOOOOOOOOOOOOOOOOOXXoooooooo....XXooooooooooooooooooXX++++++++++++++++++++++++OOOOOOOOOOOOOOOOOOOOOO",
"OOOOOOOOOOOOOOOOOOOOOOOO      OOOOOOOOOOOOOOOOXXoooooooo....XXooooooooooooooooooXXOOOO++++++++++++++++++++OOOOOOOOOOOOOOOOOOOOOO",
"OOOOOOOOOOOOOOOOOOOOOOOO      OOOOOOOOOOOOOOOOXXoooooooo....XXooooooooooooooooooXXOOOO++++++++++++++++++++OOOOOOOOOOOOOOOOOOOOOO",
"OOOOOOOOOOOOOOOOOOOOOO          OOOOOOOOOOOOOOXXoooooooo....XXXXooooooooooooooooXXOOOOOOOO++++++++++++++OOOOOOOOOOOOOOOOOOOOOOOO",
"OOOOOOOOOOOOOOOOOOOOOO          OOOOOOOOOOOOOOXXoooooooo....XXXXooooooooooooooooXXOOOOOOOO++++++++++++++OOOOOOOOOOOOOOOOOOOOOOOO",
"OOOOOOOOOOOOOOOOOOOO              OOOOOOOOOOOOXXoooooooo................ooooooooXX++++OOOOOOOO++++++++++++OOOOOOOOOOOOOOOOOOOOOO",
"OOOOOOOOOOOOOOOOOOOO              OOOOOOOOOOOOXXoooooooo................ooooooooXX++++OOOOOOOO++++++++++++OOOOOOOOOOOOOOOOOOOOOO",
"OOOOOOOOOOOOOOOOOOOO              OOOOOOOOOOOOXXooooooooooooooooXX......ooooooooXX++++++++OOOOOOOO++++++++OOOOOOOOOOOOOOOOOOOOOO",
"OOOOOOOOOOOOOOOOOOOO              OOOOOOOOOOOOXXooooooooooooooooXX......ooooooooXX++++++++OOOOOOOO++++++++OOOOOOOOOOOOOOOOOOOOOO",
"OOOOOOOOOOOOOOOOOOOO              OOOOOOOOOOOOXXooooooooooooooooooXX....ooooooooXX++++++++++++OOOOOOOO++++OOOOOOOOOOOOOOOOOOOOOO",
"OOOOOOOOOOOOOOOOOOOO              OOOOOOOOOOOOXXooooooooooooooooooXX....ooooooooXX++++++++++++OOOOOOOO++++OOOOOOOOOOOOOOOOOOOOOO",
"OOOOOOOOOOOOOOOOOOOOOO          OOOOOOOOOOOOOOXXoooooooooooooooooooo....ooooooooXX++++++++++++++++OOOOOOOOOOOOOOOOOOOOOOOOOOOOOO",
"OOOOOOOOOOOOOOOOOOOOOO          OOOOOOOOOOOOOOXXoooooooooooooooooooo....ooooooooXX++++++++++++++++OOOOOOOOOOOOOOOOOOOOOOOOOOOOOO",
"OOOOOOOOOOOOOOOOOOOOOOOO      OOOOOOOOOOOOOOOOXXoooooooooooooooooooo....ooooooooXX++++++++++++++++++++OOOOOOOOOOOOOOOOOOOOOOOOOO",
"OOOOOOOOOOOOOOOOOOOOOOOO      OOOOOOOOOOOOOOOOXXoooooooooooooooooooo....ooooooooXX++++++++++++++++++++OOOOOOOOOOOOOOOOOOOOOOOOOO",
"OOOOOOOOOOOOOOOOOOOOOOOOOOOOOOOOOOOOOOOOOOOOOOXXooooooooooooooooooXX....ooooooooXX++++++++++++++++++++++++OOOOOOOOOOOOOOOOOOOOOO",
"OOOOOOOOOOOOOOOOOOOOOOOOOOOOOOOOOOOOOOOOOOOOOOXXooooooooooooooooooXX....ooooooooXX++++++++++++++++++++++++OOOOOOOOOOOOOOOOOOOOOO",
"OOOOOOOOOOOOOOOOOOOOOOOOOOOOOOOOOOOOOOOOOOOOOOXXoooooooo................ooooooooXXOOOO++++++++++++++++++++OOOOOOOOOOOOOOOOOOOOOO",
"OOOOOOOOOOOOOOOOOOOOOOOOOOOOOOOOOOOOOOOOOOOOOOXXoooooooo................ooooooooXXOOOO++++++++++++++++++++OOOOOOOOOOOOOOOOOOOOOO",
"OOOOOOOOOOOOOOOOOOOOOOOOOOOOOOOOOOOOOOOOOOOOOOXXoooooooo......XXooooooooooooooooXXOOOOOOOO++++++++++++++++OOOOOOOOOOOOOOOOOOOOOO",
"OOOOOOOOOOOOOOOOOOOOOOOOOOOOOOOOOOOOOOOOOOOOOOXXoooooooo......XXooooooooooooooooXXOOOOOOOO++++++++++++++++OOOOOOOOOOOOOOOOOOOOOO",
"OOOOOOOOOOOOOOOOOOOOOOOOOOOOOOOOOOOOOOOOOOOOOOXXoooooooo....XXooooooooooooooooooXX++++OOOOOOOO++++++++++++OOOOOOOOOOOOOOOOOOOOOO",
"OOOOOOOOOOOOOOOOOOOOOOOOOOOOOOOOOOOOOOOOOOOOOOXXoooooooo....XXooooooooooooooooooXX++++OOOOOOOO++++++++++++OOOOOOOOOOOOOOOOOOOOOO",
"OOOOOOOOOOOOOOOOOOOOOOOOOOOOOOOOOOOOOOOOOOOOOOXXoooooooo....XXooooooooooooooooooXX++++++++OOOOOOOO++++++++OOOOOOOOOOOOOOOOOOOOOO",
"OOOOOOOOOOOOOOOOOOOOOOOOOOOOOOOOOOOOOOOOOOOOOOXXoooooooo....XXooooooooooooooooooXX++++++++OOOOOOOO++++++++OOOOOOOOOOOOOOOOOOOOOO",
"OOOOOOOOOOOOOOOOOOOOOOOOOOOOOOOOOOOOOOOOOOOOOOXXoooooooo....XXXXooooooooooooooooXX++++++++++++OOOOOOOO++++OOOOOOOOOOOOOOOOOOOOOO",
"OOOOOOOOOOOOOOOOOOOOOOOOOOOOOOOOOOOOOOOOOOOOOOXXoooooooo....XXXXooooooooooooooooXX++++++++++++OOOOOOOO++++OOOOOOOOOOOOOOOOOOOOOO",
"OOOOOOOOOOOOOOOOOOOOOOOOOOOOOOOOOOOOOOOOOOOOOOXXoooooooo....XXXXooooooooooooooooXX++++++++++++++++OOOOOOOOOOOOOOOOOOOOOOOOOOOOOO",
"OOOOOOOOOOOOOOOOOOOOOOOOOOOOOOOOOOOOOOOOOOOOOOXXoooooooo....XXXXooooooooooooooooXX++++++++++++++++OOOOOOOOOOOOOOOOOOOOOOOOOOOOOO",
"OOOOOOOOOOOOOOOOOOOOOOOOOOOOOOOOOOOOOOOOOOOOOOXXoooooooo................ooooooooXX++++++++++++++++++++OOOOOOOOOOOOOOOOOOOOOOOOOO",
"OOOOOOOOOOOOOOOOOOOOOOOOOOOOOOOOOOOOOOOOOOOOOOXXoooooooo................ooooooooXX++++++++++++++++++++OOOOOOOOOOOOOOOOOOOOOOOOOO",
"OOOOOOOOOOOOOOOOOOOOOOOOOOOOOOOOOOOOOOOOOOOOOOXXooooooooooooooooXX......ooooooooXX++++++++++++++++++++++++OOOOOOOOOOOOOOOOOOOOOO",
"OOOOOOOOOOOOOOOOOOOOOOOOOOOOOOOOOOOOOOOOOOOOOOXXooooooooooooooooXX......ooooooooXX++++++++++++++++++++++++OOOOOOOOOOOOOOOOOOOOOO",
"OOOOOOOOOOOOOOOOOOOOOOOOOOOOOOOOOOOOOOOOOOOOOOXXooooooooooooooooooXX....ooooooooXXOOOO++++++++++++++++++++OOOOOOOOOOOOOOOOOOOOOO",
"OOOOOOOOOOOOOOOOOOOOOOOOOOOOOOOOOOOOOOOOOOOOOOXXooooooooooooooooooXX....ooooooooXXOOOO++++++++++++++++++++OOOOOOOOOOOOOOOOOOOOOO",
"OOOOOOOOOOOOOOOOOOOOOOOOOOOOOOOOOOOOOOOOOOOOOOXXooooooooooooooooooXX....ooooooooXXOOOOOOOO++++++++++++++++OOOOOOOOOOOOOOOOOOOOOO",
"OOOOOOOOOOOOOOOOOOOOOOOOOOOOOOOOOOOOOOOOOOOOOOXXooooooooooooooooooXX....ooooooooXXOOOOOOOO++++++++++++++++OOOOOOOOOOOOOOOOOOOOOO",
"OOOOOOOOOOOOOOOOOOOOOOOOOOOOOOOOOOOOOOOOOOOOOOXXooooooooooooooooooXX....ooooooooXX++++OOOOOOOO++++++++++++OOOOOOOOOOOOOOOOOOOOOO",
"OOOOOOOOOOOOOOOOOOOOOOOOOOOOOOOOOOOOOOOOOOOOOOXXooooooooooooooooooXX....ooooooooXX++++OOOOOOOO++++++++++++OOOOOOOOOOOOOOOOOOOOOO",
"OOOOOOOOOOOOOOOOOOOOOOOOOOOOOOOOOOOOOOOOOOOOOOXXooooooooooooooooXXXXXX..ooooooooXX++++++++OOOOOOOO++++++++OOOOOOOOOOOOOOOOOOOOOO",
"OOOOOOOOOOOOOOOOOOOOOOOOOOOOOOOOOOOOOOOOOOOOOOXXooooooooooooooooXXXXXX..ooooooooXX++++++++OOOOOOOO++++++++OOOOOOOOOOOOOOOOOOOOOO",
"OOOOOOOOOOOOOOOOOOOOOOOOOOOOOOOOOOOOOOOOOOOOOOXXoooooooo................ooooooooXX++++++++++++OOOOOOOO++++OOOOOOOOOOOOOOOOOOOOOO",
"OOOOOOOOOOOOOOOOOOOOOOOOOOOOOOOOOOOOOOOOOOOOOOXXoooooooo................ooooooooXX++++++++++++OOOOOOOO++++OOOOOOOOOOOOOOOOOOOOOO",
"OOOOOOOOOOOOOOOOOOOOOOOOOOOOOOOOOOOOOOOOOOOOOOXXoooooooo....XXooooooooooooooooooXX++++++++++++++++OOOOOOOOOOOOOOOOOOOOOOOOOOOOOO",
"OOOOOOOOOOOOOOOOOOOOOOOOOOOOOOOOOOOOOOOOOOOOOOXXoooooooo....XXooooooooooooooooooXX++++++++++++++++OOOOOOOOOOOOOOOOOOOOOOOOOOOOOO",
"OOOOOOOOOOOOOOOOOOOOOOOOOOOOOOOOOOOOOOOOOOOOOOXXoooooooo....ooooooooooooooooooooXX++++++++++++++++++++OOOOOOOOOOOOOOOOOOOOOOOOOO",
"OOOOOOOOOOOOOOOOOOOOOOOOOOOOOOOOOOOOOOOOOOOOOOXXoooooooo....ooooooooooooooooooooXX++++++++++++++++++++OOOOOOOOOOOOOOOOOOOOOOOOOO",
"OOOOOOOOOOOOOOOOOOOOOOOOOOOOOOOOOOOOOOOOOOOOOOXXoooooooo..XXXXooooooooooooooooooXX++++++++++++++++++++++++OOOOOOOOOOOOOOOOOOOOOO",
"OOOOOOOOOOOOOOOOOOOOOOOOOOOOOOOOOOOOOOOOOOOOOOXXoooooooo..XXXXooooooooooooooooooXX++++++++++++++++++++++++OOOOOOOOOOOOOOOOOOOOOO",
"OOOOOOOOOOOOOOOOOOOOOOOOOOOOOOOOOOOOOOOOOOOOOOXXoooooooo....XXooooooooooooooooooXX++++++++++++++++++++++++OOOOOOOOOOOOOOOOOOOOOO",
"OOOOOOOOOOOOOOOOOOOOOOOOOOOOOOOOOOOOOOOOOOOOOOXXoooooooo....XXooooooooooooooooooXX++++++++++++++++++++++++OOOOOOOOOOOOOOOOOOOOOO",
"OOOOOOOOOOOOOOOOOOOOOOOOOOOOOOOOOOOOOOOOOOOOOOXXoooooooo....XXXXooooooooooooooooXX++++++++++++++++++++++++OOOOOOOOOOOOOOOOOOOOOO",
"OOOOOOOOOOOOOOOOOOOOOOOOOOOOOOOOOOOOOOOOOOOOOOXXoooooooo....XXXXooooooooooooooooXX++++++++++++++++++++++++OOOOOOOOOOOOOOOOOOOOOO",
"OOOOOOOOOOOOOOOOOOOOOOOOOOOOOOOOOOOOOOOOOOOOOOXXoooooooo................ooooooooXX++++++++++++++++++++++++OOOOOOOOOOOOOOOOOOOOOO",
"OOOOOOOOOOOOOOOOOOOOOOOOOOOOOOOOOOOOOOOOOOOOOOXXoooooooo................ooooooooXX++++++++++++++++++++++++OOOOOOOOOOOOOOOOOOOOOO",
"OOOOOOOOOOOOOOOOOOOOOOOOOOOOOOOOOOOOOOOOOOOOOOXXooooooooooooooXXXXXX....ooooooooXX++++++++++++++++++++++++OOOOOOOOOOOOOOOOOOOOOO",
"OOOOOOOOOOOOOOOOOOOOOOOOOOOOOOOOOOOOOOOOOOOOOOXXooooooooooooooXXXXXX....ooooooooXX++++++++++++++++++++++++OOOOOOOOOOOOOOOOOOOOOO",
"OOOOOOOOOOOOOOOOOOOOOOOOOOOOOOOOOOOOOOOOOOOOOOXXooooooooooooooooXX......ooooooooXX++++++++++++++OO++OOOOOOOOOOOOOOOOOOOOOOOOOOOO",
"OOOOOOOOOOOOOOOOOOOOOOOOOOOOOOOOOOOOOOOOOOOOOOXXooooooooooooooooXX......ooooooooXX++++++++++++++OO++OOOOOOOOOOOOOOOOOOOOOOOOOOOO",
"OOOOOOOOOOOOOOOOOOOOOOOOOOOOOOOOOOOOOOOOOOOOOOXXooooooooooooooooXX......ooooooooXX++++++++++++++++++++++OOOOOOOOOOOOOOOOOOOOOOOO",
"OOOOOOOOOOOOOOOOOOOOOOOOOOOOOOOOOOOOOOOOOOOOOOXXooooooooooooooooXX......ooooooooXX++++++++++++++++++++++OOOOOOOOOOOOOOOOOOOOOOOO",
"OOOOOOOOOOOOOOOOOOOOOOOOOOOOooooooooooooooOOOOXXooooooooooooooooXX......ooooooooXX++++++++++++++++++++++++OOOOOOOOOOOOOOOOOOOOOO",
"OOOOOOOOOOOOOOOOOOOOOOOOOOOOooooooooooooooOOOOXXooooooooooooooooXX......ooooooooXX++++++++++++++++++++++++OOOOOOOOOOOOOOOOOOOOOO",
"OOOOOOOOOOOOOOOOOOOOOOOOOOOOooOOOOOOOOOOooOOOOXXoooooooooooooooo........ooooooooXX++++++++++++++++++++++++OOOOOOOOOOOOOOOOOOOOOO",
"OOOOOOOOOOOOOOOOOOOOOOOOOOOOooOOOOOOOOOOooOOOOXXoooooooooooooooo........ooooooooXX++++++++++++++++++++++++OOOOOOOOOOOOOOOOOOOOOO",
"OOOOOOOOOOOOOOOOOOOOOOOOOOOOooOOOOOOOOOOooOOOOXXoooooooo................ooooooooXX++++++++++++++++++++++++OOOOOOOOOOOOOOOOOOOOOO",
"OOOOOOOOOOOOOOOOOOOOOOOOOOOOooOOOOOOOOOOooOOOOXXoooooooo................ooooooooXX++++++++++++++++++++++++OOOOOOOOOOOOOOOOOOOOOO",
"OOOOOOOOOOOOOOOOOOOOOOOOOOOOooooooooooooooOOOOXXoooooooo......XXooooooooooooooooXX++++++++++++++++++++++++OOOOOOOOOOOOOOOOOOOOOO",
"OOOOOOOOOOOOOOOOOOOOOOOOOOOOooooooooooooooOOOOXXoooooooo......XXooooooooooooooooXX++++++++++++++++++++++++OOOOOOOOOOOOOOOOOOOOOO",
"OOOOOOOOOOOOOOOOOOOOOOOOOOOOOOOOOOOOOOOOOOOOOOXXoooooooo......XXooooooooooooooooXX++++++++++++++++++++++++OOOOOOOOOOOOOOOOOOOOOO",
"OOOOOOOOOOOOOOOOOOOOOOOOOOOOOOOOOOOOOOOOOOOOOOXXoooooooo......XXooooooooooooooooXX++++++++++++++++++++++++OOOOOOOOOOOOOOOOOOOOOO",
"OOOOOOOOOOOOOOOOOOOOOOOOOOOOooooooOOOOOOOOOOOOXXoooooooo......ooooooooooooooooooXX++++++++++++++++++++++++OOOOOOOOOOOOOOOOOOOOOO",
"OOOOOOOOOOOOOOOOOOOOOOOOOOOOooooooOOOOOOOOOOOOXXoooooooo......ooooooooooooooooooXX++++++++++++++++++++++++OOOOOOOOOOOOOOOOOOOOOO",
"OOOOOOOOOOOOOOOOOOOOOOOOOOOOooooooOOOOOOOOOOOOXXoooooooo....XXooooooooooooooooooXX++++++++++++++++++++++++OOOOOOOOOOOOOOOOOOOOOO",
"OOOOOOOOOOOOOOOOOOOOOOOOOOOOooooooOOOOOOOOOOOOXXoooooooo....XXooooooooooooooooooXX++++++++++++++++++++++++OOOOOOOOOOOOOOOOOOOOOO",
"OOOOOOOOOOOOOOOOOOOOOOOOOOOOOOOOOOOOOOOOOOOOOOXXoooooooo....XXXXooooooooooooooooXX++++++++++++++++++++++++OOOOOOOOOOOOOOOOOOOOOO",
"OOOOOOOOOOOOOOOOOOOOOOOOOOOOOOOOOOOOOOOOOOOOOOXXoooooooo....XXXXooooooooooooooooXX++++++++++++++++++++++++OOOOOOOOOOOOOOOOOOOOOO",
"OOOOOOOOOOOOOOOOOOOOOOOOOOOOOOOOOOOOOOOOOOOOOOXXoooooooo................ooooooooXX++++++++++++++++++++++++OOOOOOOOOOOOOOOOOOOOOO",
"OOOOOOOOOOOOOOOOOOOOOOOOOOOOOOOOOOOOOOOOOOOOOOXXoooooooo................ooooooooXX++++++++++++++++++++++++OOOOOOOOOOOOOOOOOOOOOO",
"OOOOOOOOOOOOOOOOOOOOOOOOOOOOOOOOOOOOOOOOOOOOOOXXooooooooooooooooXXXX....ooooooooXX++++++++++++++++++++++++OOOOOOOOOOOOOOOOOOOOOO",
"OOOOOOOOOOOOOOOOOOOOOOOOOOOOOOOOOOOOOOOOOOOOOOXXooooooooooooooooXXXX....ooooooooXX++++++++++++++++++++++++OOOOOOOOOOOOOOOOOOOOOO",
"OOOOOOOOOOOOOOOOOOOOOOOOOOOOOOOOOOOOOOOOOOOOOOXXooooooooooooooooooXX....ooooooooXX++++++++++++++++++++++++OOOOOOOOOOOOOOOOOOOOOO",
"OOOOOOOOOOOOOOOOOOOOOOOOOOOOOOOOOOOOOOOOOOOOOOXXooooooooooooooooooXX....ooooooooXX++++++++++++++++++++++++OOOOOOOOOOOOOOOOOOOOOO",
"OOOOOOOOOOOOOOOOOOOOOOOOOOOOOOOOOOOOOOOOOOOOOOXXoooooooooooooooooooo....ooooooooXX++++OOOO++++++++++++++++OOOOOOOOOOOOOOOOOOOOOO",
"OOOOOOOOOOOOOOOOOOOOOOOOOOOOOOOOOOOOOOOOOOOOOOXXoooooooooooooooooooo....ooooooooXX++++OOOO++++++++++++++++OOOOOOOOOOOOOOOOOOOOOO",
"OOOOOOOOOOOOOOOOOOOOOOOOOOOOOOOOOOOOOOOOOOOOOOXXoooooooooooooooooooo....ooooooooXX++++++++OOOOOO++++++++++OOOOOOOOOOOOOOOOOOOOOO",
"OOOOOOOOOOOOOOOOOOOOOOOOOOOOOOOOOOOOOOOOOOOOOOXXoooooooooooooooooooo....ooooooooXX++++++++OOOOOO++++++++++OOOOOOOOOOOOOOOOOOOOOO",
"OOOOOOOOOOOOOOOOOOOOOOOOOOOOOOOOOOOOOOOOOOOOOOXXoooooooooooooooooo......ooooooooXX++++++++++++++OOOOOOOOOOOOOOOOOOOOOOOOOOOOOOOO",
"OOOOOOOOOOOOOOOOOOOOOOOOOOOOOOOOOOOOOOOOOOOOOOXXoooooooooooooooooo......ooooooooXX++++++++++++++OOOOOOOOOOOOOOOOOOOOOOOOOOOOOOOO",
"OOOOOOOOOOOOOOOOOOOOOOOOOOOOOOOOOOOOOOOOOOOOOOXXoooooooo................ooooooooXX++++++++++++++++++OOOOOOOOOOOOOOOOOOOOOOOOOOOO",
"OOOOOOOOOOOOOOOOOOOOOOOOOOOOOOOOOOOOOOOOOOOOOOXXoooooooo................ooooooooXX++++++++++++++++++OOOOOOOOOOOOOOOOOOOOOOOOOOOO",
"OOOOOOOOOOOOOOOOOOOOOOOOOOOOOOOOOOOOOOOOOOOOOOXXoooooooo......XXooooooooooooooooXX++++++++++++++++++++++OOOOOOOOOOOOOOOOOOOOOOOO",
"OOOOOOOOOOOOOOOOOOOOOOOOOOOOOOOOOOOOOOOOOOOOOOXXoooooooo......XXooooooooooooooooXX++++++++++++++++++++++OOOOOOOOOOOOOOOOOOOOOOOO",
"OOOOOOOOOOOOOOOOOOOOOOOOOOOOOOOOOOOOOOOOOOOOOOXXoooooooo....XXooooooooooooooooooXX++++++++++++++++++++++++OOOOOOOOOOOOOOOOOOOOOO",
"OOOOOOOOOOOOOOOOOOOOOOOOOOOOOOOOOOOOOOOOOOOOOOXXoooooooo....XXooooooooooooooooooXX++++++++++++++++++++++++OOOOOOOOOOOOOOOOOOOOOO",
"OOOOOOOOOOOOOOOOOOOOOOOOOOOOOOOOOOOOOOOOOOOOOOXXoooooooo....ooooooooooooooooooooXX++++++++++++++++++++++++OOOOOOOOOOOOOOOOOOOOOO",
"OOOOOOOOOOOOOOOOOOOOOOOOOOOOOOOOOOOOOOOOOOOOOOXXoooooooo....ooooooooooooooooooooXX++++++++++++++++++++++++OOOOOOOOOOOOOOOOOOOOOO",
"OOOOOOOOOOOOOOOOOOOOOOOOOOOOOOOOOOOOOOOOOOOOOOXXoooooooo....ooooooooooooooooooooXX++++++++++++++++++++++++OOOOOOOOOOOOOOOOOOOOOO",
"OOOOOOOOOOOOOOOOOOOOOOOOOOOOOOOOOOOOOOOOOOOOOOXXoooooooo....ooooooooooooooooooooXX++++++++++++++++++++++++OOOOOOOOOOOOOOOOOOOOOO",
"OOOOOOOOOOOOOOOOOOOOOOOOOOOOOOOOOOOOOOOOOOOOOOXXoooooooo..XXXXooooooooooooooooooXX++++++++++++++++++++++++OOOOOOOOOOOOOOOOOOOOOO",
"OOOOOOOOOOOOOOOOOOOOOOOOOOOOOOOOOOOOOOOOOOOOOOXXoooooooo..XXXXooooooooooooooooooXX++++++++++++++++++++++++OOOOOOOOOOOOOOOOOOOOOO",
"OOOOOOOOOOOOOOOOOOOOOOOOOOOOOOOOOOOOOOOOOOOOOOXXoooooooo................ooooooooXX++++++++++++++++++++++++OOOOOOOOOOOOOOOOOOOOOO",
"OOOOOOOOOOOOOOOOOOOOOOOOOOOOOOOOOOOOOOOOOOOOOOXXoooooooo................ooooooooXX++++++++++++++++++++++++OOOOOOOOOOOOOOOOOOOOOO",
"OOOOOOOOOOOOOOOOOOOOOOOOOOOOOOOOOOOOOOOOOOOOOOXXooooooooooooooooXX......ooooooooXX++++++++++++++++++++++++OOOOOOOOOOOOOOOOOOOOOO",
"OOOOOOOOOOOOOOOOOOOOOOOOOOOOOOOOOOOOOOOOOOOOOOXXooooooooooooooooXX......ooooooooXX++++++++++++++++++++++++OOOOOOOOOOOOOOOOOOOOOO",
"OOOOOOOOOOOOOOOOOOOOOOOOOOOOOOOOOOOOOOOOOOOOOOXXoooooooooooooooooo......ooooooooXX++++++++++++++++++++++++OOOOOOOOOOOOOOOOOOOOOO",
"OOOOOOOOOOOOOOOOOOOOOOOOOOOOOOOOOOOOOOOOOOOOOOXXoooooooooooooooooo......ooooooooXX++++++++++++++++++++++++OOOOOOOOOOOOOOOOOOOOOO",
"OOOOOOOOOOOOOOOOOOOOOOOOOOOOOOOOOOOOOOOOOOOOOOXXooooooooooooooooooXX....ooooooooXX++++++++++++++++++++++++OOOOOOOOOOOOOOOOOOOOOO",
"OOOOOOOOOOOOOOOOOOOOOOOOOOOOOOOOOOOOOOOOOOOOOOXXooooooooooooooooooXX....ooooooooXX++++++++++++++++++++++++OOOOOOOOOOOOOOOOOOOOOO",
"OOOOOOOOOOOOOOOOOOOOOOOOOOOOOOOOOOOOOOOOOOOOOOXXooooooooooooooooXXXX....ooooooooXXOOOOOOOO++++++++++++++++OOOOOOOOOOOOOOOOOOOOOO",
"OOOOOOOOOOOOOOOOOOOOOOOOOOOOOOOOOOOOOOOOOOOOOOXXooooooooooooooooXXXX....ooooooooXXOOOOOOOO++++++++++++++++OOOOOOOOOOOOOOOOOOOOOO",
"OOOOOOOOOOOOOOOOOOOOOOOOOOOOOOOOOOOOOOOOOOOOOOXXooooooooooooooXX........ooooooooXXOOOOOO++++++++++++++++++OOOOOOOOOOOOOOOOOOOOOO",
"OOOOOOOOOOOOOOOOOOOOOOOOOOOOOOOOOOOOOOOOOOOOOOXXooooooooooooooXX........ooooooooXXOOOOOO++++++++++++++++++OOOOOOOOOOOOOOOOOOOOOO",
"OOOOOOOOOOOOOOOOOOOOOOOOOOOOOOOOOOOOOOOOOOOOOOXXoooooooo................ooooooooXXOOOO++++++++++++++++++++OOOOOOOOOOOOOOOOOOOOOO",
"OOOOOOOOOOOOOOOOOOOOOOOOOOOOOOOOOOOOOOOOOOOOOOXXoooooooo................ooooooooXXOOOO++++++++++++++++++++OOOOOOOOOOOOOOOOOOOOOO",
"OOOOOOOOOOOOOOOOOOOOOOOOOOOOOOOOOOOOOOOOOOOOOOXXoooooooo....XXooooooooooooooooooXXOO++++++++++++++++++++++OOOOOOOOOOOOOOOOOOOOOO",
"OOOOOOOOOOOOOOOOOOOOOOOOOOOOOOOOOOOOOOOOOOOOOOXXoooooooo....XXooooooooooooooooooXXOO++++++++++++++++++++++OOOOOOOOOOOOOOOOOOOOOO",
"OOOOOOOOOOOOOOOOOOOOOOOOOOOOOOOOOOOOOOOOOOOOOOXXoooooooo....ooooooooooooooooooooXX++++++++++++++++++++++++OOOOOOOOOOOOOOOOOOOOOO",
"OOOOOOOOOOOOOOOOOOOOOOOOOOOOOOOOOOOOOOOOOOOOOOXXoooooooo....ooooooooooooooooooooXX++++++++++++++++++++++++OOOOOOOOOOOOOOOOOOOOOO"
};
