/* XPM */
static char *ed81656ebe1045cef4b0c3ee7df72bc8KeomUoD8UsZdF6PW[] = {
/* columns rows colors chars-per-pixel */
"128 128 7 1 ",
"  c #1D1D1D",
". c #313131",
"X c gray29",
"o c #767676",
"O c #973D3D",
"+ c red",
"@ c white",
/* pixels */
"oooooooooooooooooooooooooooooooooooooooooooooo..XXXXXXXXXXXXXXXXXXXXXX  XXXXXXXX..OOOOOOOOOOOOOOOOOOOOOOOOoooooooooooooooooooooo",
"oooooooooooooooooooooooooooooooooooooooooooooo..XXXXXXXXXXXXXXXXXXXXXX  XXXXXXXX..OOOOOOOOOOOOOOOOOOOOOOOOoooooooooooooooooooooo",
"oooooooooooooooooooooooooooooooooooooooooooooo..XXXXXXXX                XXXXXXXX..OOOOOOOOOOOOOOOOOOOOOOOOoooooooooooooooooooooo",
"oooooooooooooooooooooooooooooooooooooooooooooo..XXXXXXXX                XXXXXXXX..OOOOOOOOOOOOOOOOOOOOOOOOoooooooooooooooooooooo",
"oooooooooooooooooooooooooooooooooooooooooooooo..XXXXXXXX    ....XXXXXXXXXXXXXXXX..OOOOOOOOOOOOOOOOOOOOOOOOoooooooooooooooooooooo",
"oooooooooooooooooooooooooooooooooooooooooooooo..XXXXXXXX    ....XXXXXXXXXXXXXXXX..OOOOOOOOOOOOOOOOOOOOOOOOoooooooooooooooooooooo",
"oooooooooooooooooooooooooooooooooooooooooooooo..XXXXXXXX    ..XXXXXXXXXXXXXXXXXX..OOOOOOOOOOOOOOOOOOOOOOOOoooooooooooooooooooooo",
"oooooooooooooooooooooooooooooooooooooooooooooo..XXXXXXXX    ..XXXXXXXXXXXXXXXXXX..OOOOOOOOOOOOOOOOOOOOOOOOoooooooooooooooooooooo",
"oooooooooooooooooooooooooooooooooooooooooooooo..XXXXXXXX    ..XXXXXXXXXXXXXXXXXX..OOOOOOOOOOOOOOOOOOOOOOOOoooooooooooooooooooooo",
"oooooooooooooooooooooooooooooooooooooooooooooo..XXXXXXXX    ..XXXXXXXXXXXXXXXXXX..OOOOOOOOOOOOOOOOOOOOOOOOoooooooooooooooooooooo",
"oooooooooooooooooooooooo++++++oooooooooooooooo..XXXXXXXX    ..XXXXXXXXXXXXXXXXXX..ooooOOOOOOOOOOOOOOOOOOOOoooooooooooooooooooooo",
"oooooooooooooooooooooooo++++++oooooooooooooooo..XXXXXXXX    ..XXXXXXXXXXXXXXXXXX..ooooOOOOOOOOOOOOOOOOOOOOoooooooooooooooooooooo",
"oooooooooooooooooooooo++++++++++oooooooooooooo..XXXXXXXX    ....XXXXXXXXXXXXXXXX..ooooooooOOOOOOOOOOOOOOoooooooooooooooooooooooo",
"oooooooooooooooooooooo++++++++++oooooooooooooo..XXXXXXXX    ....XXXXXXXXXXXXXXXX..ooooooooOOOOOOOOOOOOOOoooooooooooooooooooooooo",
"oooooooooooooooooooo++++@@++++++++oooooooooooo..XXXXXXXX                XXXXXXXX..OOOOooooooooOOOOOOOOOOOOoooooooooooooooooooooo",
"oooooooooooooooooooo++++@@++++++++oooooooooooo..XXXXXXXX                XXXXXXXX..OOOOooooooooOOOOOOOOOOOOoooooooooooooooooooooo",
"oooooooooooooooooooo++++++++++++++oooooooooooo..XXXXXXXXXXXXXXXX..      XXXXXXXX..OOOOOOOOooooooooOOOOOOOOoooooooooooooooooooooo",
"oooooooooooooooooooo++++++++++++++oooooooooooo..XXXXXXXXXXXXXXXX..      XXXXXXXX..OOOOOOOOooooooooOOOOOOOOoooooooooooooooooooooo",
"oooooooooooooooooooo++++++++++++++oooooooooooo..XXXXXXXXXXXXXXXXXX..    XXXXXXXX..OOOOOOOOOOOOooooooooOOOOoooooooooooooooooooooo",
"oooooooooooooooooooo++++++++++++++oooooooooooo..XXXXXXXXXXXXXXXXXX..    XXXXXXXX..OOOOOOOOOOOOooooooooOOOOoooooooooooooooooooooo",
"oooooooooooooooooooooo++++++++++oooooooooooooo..XXXXXXXXXXXXXXXXXXXX    XXXXXXXX..OOOOOOOOOOOOOOOOoooooooooooooooooooooooooooooo",
"oooooooooooooooooooooo++++++++++oooooooooooooo..XXXXXXXXXXXXXXXXXXXX    XXXXXXXX..OOOOOOOOOOOOOOOOoooooooooooooooooooooooooooooo",
"oooooooooooooooooooooooo++++++oooooooooooooooo..XXXXXXXXXXXXXXXXXXXX    XXXXXXXX..OOOOOOOOOOOOOOOOOOOOoooooooooooooooooooooooooo",
"oooooooooooooooooooooooo++++++oooooooooooooooo..XXXXXXXXXXXXXXXXXXXX    XXXXXXXX..OOOOOOOOOOOOOOOOOOOOoooooooooooooooooooooooooo",
"oooooooooooooooooooooooooooooooooooooooooooooo..XXXXXXXXXXXXXXXXXX..    XXXXXXXX..OOOOOOOOOOOOOOOOOOOOOOOOoooooooooooooooooooooo",
"oooooooooooooooooooooooooooooooooooooooooooooo..XXXXXXXXXXXXXXXXXX..    XXXXXXXX..OOOOOOOOOOOOOOOOOOOOOOOOoooooooooooooooooooooo",
"oooooooooooooooooooooooooooooooooooooooooooooo..XXXXXXXX                XXXXXXXX..ooooOOOOOOOOOOOOOOOOOOOOoooooooooooooooooooooo",
"oooooooooooooooooooooooooooooooooooooooooooooo..XXXXXXXX                XXXXXXXX..ooooOOOOOOOOOOOOOOOOOOOOoooooooooooooooooooooo",
"oooooooooooooooooooooooooooooooooooooooooooooo..XXXXXXXX      ..XXXXXXXXXXXXXXXX..ooooooooOOOOOOOOOOOOOOOOoooooooooooooooooooooo",
"oooooooooooooooooooooooooooooooooooooooooooooo..XXXXXXXX      ..XXXXXXXXXXXXXXXX..ooooooooOOOOOOOOOOOOOOOOoooooooooooooooooooooo",
"oooooooooooooooooooooooooooooooooooooooooooooo..XXXXXXXX    ..XXXXXXXXXXXXXXXXXX..OOOOooooooooOOOOOOOOOOOOoooooooooooooooooooooo",
"oooooooooooooooooooooooooooooooooooooooooooooo..XXXXXXXX    ..XXXXXXXXXXXXXXXXXX..OOOOooooooooOOOOOOOOOOOOoooooooooooooooooooooo",
"oooooooooooooooooooooooooooooooooooooooooooooo..XXXXXXXX    ..XXXXXXXXXXXXXXXXXX..OOOOOOOOooooooooOOOOOOOOoooooooooooooooooooooo",
"oooooooooooooooooooooooooooooooooooooooooooooo..XXXXXXXX    ..XXXXXXXXXXXXXXXXXX..OOOOOOOOooooooooOOOOOOOOoooooooooooooooooooooo",
"oooooooooooooooooooooooooooooooooooooooooooooo..XXXXXXXX    ....XXXXXXXXXXXXXXXX..OOOOOOOOOOOOooooooooOOOOoooooooooooooooooooooo",
"oooooooooooooooooooooooooooooooooooooooooooooo..XXXXXXXX    ....XXXXXXXXXXXXXXXX..OOOOOOOOOOOOooooooooOOOOoooooooooooooooooooooo",
"oooooooooooooooooooooooooooooooooooooooooooooo..XXXXXXXX    ....XXXXXXXXXXXXXXXX..OOOOOOOOOOOOOOOOoooooooooooooooooooooooooooooo",
"oooooooooooooooooooooooooooooooooooooooooooooo..XXXXXXXX    ....XXXXXXXXXXXXXXXX..OOOOOOOOOOOOOOOOoooooooooooooooooooooooooooooo",
"oooooooooooooooooooooooooooooooooooooooooooooo..XXXXXXXX                XXXXXXXX..OOOOOOOOOOOOOOOOOOOOoooooooooooooooooooooooooo",
"oooooooooooooooooooooooooooooooooooooooooooooo..XXXXXXXX                XXXXXXXX..OOOOOOOOOOOOOOOOOOOOoooooooooooooooooooooooooo",
"oooooooooooooooooooooooooooooooooooooooooooooo..XXXXXXXXXXXXXXXX..      XXXXXXXX..OOOOOOOOOOOOOOOOOOOOOOOOoooooooooooooooooooooo",
"oooooooooooooooooooooooooooooooooooooooooooooo..XXXXXXXXXXXXXXXX..      XXXXXXXX..OOOOOOOOOOOOOOOOOOOOOOOOoooooooooooooooooooooo",
"oooooooooooooooooooooooooooooooooooooooooooooo..XXXXXXXXXXXXXXXXXX..    XXXXXXXX..ooooOOOOOOOOOOOOOOOOOOOOoooooooooooooooooooooo",
"oooooooooooooooooooooooooooooooooooooooooooooo..XXXXXXXXXXXXXXXXXX..    XXXXXXXX..ooooOOOOOOOOOOOOOOOOOOOOoooooooooooooooooooooo",
"oooooooooooooooooooooooooooooooooooooooooooooo..XXXXXXXXXXXXXXXXXX..    XXXXXXXX..ooooooooOOOOOOOOOOOOOOOOoooooooooooooooooooooo",
"oooooooooooooooooooooooooooooooooooooooooooooo..XXXXXXXXXXXXXXXXXX..    XXXXXXXX..ooooooooOOOOOOOOOOOOOOOOoooooooooooooooooooooo",
"oooooooooooooooooooooooooooooooooooooooooooooo..XXXXXXXXXXXXXXXXXX..    XXXXXXXX..OOOOooooooooOOOOOOOOOOOOoooooooooooooooooooooo",
"oooooooooooooooooooooooooooooooooooooooooooooo..XXXXXXXXXXXXXXXXXX..    XXXXXXXX..OOOOooooooooOOOOOOOOOOOOoooooooooooooooooooooo",
"oooooooooooooooooooooooooooooooooooooooooooooo..XXXXXXXXXXXXXXXX......  XXXXXXXX..OOOOOOOOooooooooOOOOOOOOoooooooooooooooooooooo",
"oooooooooooooooooooooooooooooooooooooooooooooo..XXXXXXXXXXXXXXXX......  XXXXXXXX..OOOOOOOOooooooooOOOOOOOOoooooooooooooooooooooo",
"oooooooooooooooooooooooooooooooooooooooooooooo..XXXXXXXX                XXXXXXXX..OOOOOOOOOOOOooooooooOOOOoooooooooooooooooooooo",
"oooooooooooooooooooooooooooooooooooooooooooooo..XXXXXXXX                XXXXXXXX..OOOOOOOOOOOOooooooooOOOOoooooooooooooooooooooo",
"oooooooooooooooooooooooooooooooooooooooooooooo..XXXXXXXX    ..XXXXXXXXXXXXXXXXXX..OOOOOOOOOOOOOOOOoooooooooooooooooooooooooooooo",
"oooooooooooooooooooooooooooooooooooooooooooooo..XXXXXXXX    ..XXXXXXXXXXXXXXXXXX..OOOOOOOOOOOOOOOOoooooooooooooooooooooooooooooo",
"oooooooooooooooooooooooooooooooooooooooooooooo..XXXXXXXX    XXXXXXXXXXXXXXXXXXXX..OOOOOOOOOOOOOOOOOOOOoooooooooooooooooooooooooo",
"oooooooooooooooooooooooooooooooooooooooooooooo..XXXXXXXX    XXXXXXXXXXXXXXXXXXXX..OOOOOOOOOOOOOOOOOOOOoooooooooooooooooooooooooo",
"oooooooooooooooooooooooooooooooooooooooooooooo..XXXXXXXX  ....XXXXXXXXXXXXXXXXXX..OOOOOOOOOOOOOOOOOOOOOOOOoooooooooooooooooooooo",
"oooooooooooooooooooooooooooooooooooooooooooooo..XXXXXXXX  ....XXXXXXXXXXXXXXXXXX..OOOOOOOOOOOOOOOOOOOOOOOOoooooooooooooooooooooo",
"oooooooooooooooooooooooooooooooooooooooooooooo..XXXXXXXX    ..XXXXXXXXXXXXXXXXXX..OOOOOOOOOOOOOOOOOOOOOOOOoooooooooooooooooooooo",
"oooooooooooooooooooooooooooooooooooooooooooooo..XXXXXXXX    ..XXXXXXXXXXXXXXXXXX..OOOOOOOOOOOOOOOOOOOOOOOOoooooooooooooooooooooo",
"oooooooooooooooooooooooooooooooooooooooooooooo..XXXXXXXX    ....XXXXXXXXXXXXXXXX..OOOOOOOOOOOOOOOOOOOOOOOOoooooooooooooooooooooo",
"oooooooooooooooooooooooooooooooooooooooooooooo..XXXXXXXX    ....XXXXXXXXXXXXXXXX..OOOOOOOOOOOOOOOOOOOOOOOOoooooooooooooooooooooo",
"oooooooooooooooooooooooooooooooooooooooooooooo..XXXXXXXX                XXXXXXXX..OOOOOOOOOOOOOOOOOOOOOOOOoooooooooooooooooooooo",
"oooooooooooooooooooooooooooooooooooooooooooooo..XXXXXXXX                XXXXXXXX..OOOOOOOOOOOOOOOOOOOOOOOOoooooooooooooooooooooo",
"oooooooooooooooooooooooooooooooooooooooooooooo..XXXXXXXXXXXXXX......    XXXXXXXX..OOOOOOOOOOOOOOOOOOOOOOOOoooooooooooooooooooooo",
"oooooooooooooooooooooooooooooooooooooooooooooo..XXXXXXXXXXXXXX......    XXXXXXXX..OOOOOOOOOOOOOOOOOOOOOOOOoooooooooooooooooooooo",
"oooooooooooooooooooooooooooooooooooooooooooooo..XXXXXXXXXXXXXXXX..      XXXXXXXX..OOOOOOOOOOOOOOooOOoooooooooooooooooooooooooooo",
"oooooooooooooooooooooooooooooooooooooooooooooo..XXXXXXXXXXXXXXXX..      XXXXXXXX..OOOOOOOOOOOOOOooOOoooooooooooooooooooooooooooo",
"oooooooooooooooooooooooooooooooooooooooooooooo..XXXXXXXXXXXXXXXX..      XXXXXXXX..OOOOOOOOOOOOOOOOOOOOOOoooooooooooooooooooooooo",
"oooooooooooooooooooooooooooooooooooooooooooooo..XXXXXXXXXXXXXXXX..      XXXXXXXX..OOOOOOOOOOOOOOOOOOOOOOoooooooooooooooooooooooo",
"ooooooooooooooooooooooooooooXXXXXXXXXXXXXXoooo..XXXXXXXXXXXXXXXX..      XXXXXXXX..OOOOOOOOOOOOOOOOOOOOOOOOoooooooooooooooooooooo",
"ooooooooooooooooooooooooooooXXXXXXXXXXXXXXoooo..XXXXXXXXXXXXXXXX..      XXXXXXXX..OOOOOOOOOOOOOOOOOOOOOOOOoooooooooooooooooooooo",
"ooooooooooooooooooooooooooooXXooooooooooXXoooo..XXXXXXXXXXXXXXXX        XXXXXXXX..OOOOOOOOOOOOOOOOOOOOOOOOoooooooooooooooooooooo",
"ooooooooooooooooooooooooooooXXooooooooooXXoooo..XXXXXXXXXXXXXXXX        XXXXXXXX..OOOOOOOOOOOOOOOOOOOOOOOOoooooooooooooooooooooo",
"ooooooooooooooooooooooooooooXXooooooooooXXoooo..XXXXXXXX                XXXXXXXX..OOOOOOOOOOOOOOOOOOOOOOOOoooooooooooooooooooooo",
"ooooooooooooooooooooooooooooXXooooooooooXXoooo..XXXXXXXX                XXXXXXXX..OOOOOOOOOOOOOOOOOOOOOOOOoooooooooooooooooooooo",
"ooooooooooooooooooooooooooooXXXXXXXXXXXXXXoooo..XXXXXXXX      ..XXXXXXXXXXXXXXXX..OOOOOOOOOOOOOOOOOOOOOOOOoooooooooooooooooooooo",
"ooooooooooooooooooooooooooooXXXXXXXXXXXXXXoooo..XXXXXXXX      ..XXXXXXXXXXXXXXXX..OOOOOOOOOOOOOOOOOOOOOOOOoooooooooooooooooooooo",
"oooooooooooooooooooooooooooooooooooooooooooooo..XXXXXXXX      ..XXXXXXXXXXXXXXXX..OOOOOOOOOOOOOOOOOOOOOOOOoooooooooooooooooooooo",
"oooooooooooooooooooooooooooooooooooooooooooooo..XXXXXXXX      ..XXXXXXXXXXXXXXXX..OOOOOOOOOOOOOOOOOOOOOOOOoooooooooooooooooooooo",
"ooooooooooooooooooooooooooooXXXXXXoooooooooooo..XXXXXXXX      XXXXXXXXXXXXXXXXXX..OOOOOOOOOOOOOOOOOOOOOOOOoooooooooooooooooooooo",
"ooooooooooooooooooooooooooooXXXXXXoooooooooooo..XXXXXXXX      XXXXXXXXXXXXXXXXXX..OOOOOOOOOOOOOOOOOOOOOOOOoooooooooooooooooooooo",
"ooooooooooooooooooooooooooooXXXXXXoooooooooooo..XXXXXXXX    ..XXXXXXXXXXXXXXXXXX..OOOOOOOOOOOOOOOOOOOOOOOOoooooooooooooooooooooo",
"ooooooooooooooooooooooooooooXXXXXXoooooooooooo..XXXXXXXX    ..XXXXXXXXXXXXXXXXXX..OOOOOOOOOOOOOOOOOOOOOOOOoooooooooooooooooooooo",
"oooooooooooooooooooooooooooooooooooooooooooooo..XXXXXXXX    ....XXXXXXXXXXXXXXXX..OOOOOOOOOOOOOOOOOOOOOOOOoooooooooooooooooooooo",
"oooooooooooooooooooooooooooooooooooooooooooooo..XXXXXXXX    ....XXXXXXXXXXXXXXXX..OOOOOOOOOOOOOOOOOOOOOOOOoooooooooooooooooooooo",
"oooooooooooooooooooooooooooooooooooooooooooooo..XXXXXXXX                XXXXXXXX..OOOOOOOOOOOOOOOOOOOOOOOOoooooooooooooooooooooo",
"oooooooooooooooooooooooooooooooooooooooooooooo..XXXXXXXX                XXXXXXXX..OOOOOOOOOOOOOOOOOOOOOOOOoooooooooooooooooooooo",
"oooooooooooooooooooooooooooooooooooooooooooooo..XXXXXXXXXXXXXXXX....    XXXXXXXX..OOOOOOOOOOOOOOOOOOOOOOOOoooooooooooooooooooooo",
"oooooooooooooooooooooooooooooooooooooooooooooo..XXXXXXXXXXXXXXXX....    XXXXXXXX..OOOOOOOOOOOOOOOOOOOOOOOOoooooooooooooooooooooo",
"oooooooooooooooooooooooooooooooooooooooooooooo..XXXXXXXXXXXXXXXXXX..    XXXXXXXX..OOOOOOOOOOOOOOOOOOOOOOOOoooooooooooooooooooooo",
"oooooooooooooooooooooooooooooooooooooooooooooo..XXXXXXXXXXXXXXXXXX..    XXXXXXXX..OOOOOOOOOOOOOOOOOOOOOOOOoooooooooooooooooooooo",
"oooooooooooooooooooooooooooooooooooooooooooooo..XXXXXXXXXXXXXXXXXXXX    XXXXXXXX..OOOOooooOOOOOOOOOOOOOOOOoooooooooooooooooooooo",
"oooooooooooooooooooooooooooooooooooooooooooooo..XXXXXXXXXXXXXXXXXXXX    XXXXXXXX..OOOOooooOOOOOOOOOOOOOOOOoooooooooooooooooooooo",
"oooooooooooooooooooooooooooooooooooooooooooooo..XXXXXXXXXXXXXXXXXXXX    XXXXXXXX..OOOOOOOOooooooOOOOOOOOOOoooooooooooooooooooooo",
"oooooooooooooooooooooooooooooooooooooooooooooo..XXXXXXXXXXXXXXXXXXXX    XXXXXXXX..OOOOOOOOooooooOOOOOOOOOOoooooooooooooooooooooo",
"oooooooooooooooooooooooooooooooooooooooooooooo..XXXXXXXXXXXXXXXXXX      XXXXXXXX..OOOOOOOOOOOOOOoooooooooooooooooooooooooooooooo",
"oooooooooooooooooooooooooooooooooooooooooooooo..XXXXXXXXXXXXXXXXXX      XXXXXXXX..OOOOOOOOOOOOOOoooooooooooooooooooooooooooooooo",
"oooooooooooooooooooooooooooooooooooooooooooooo..XXXXXXXX                XXXXXXXX..OOOOOOOOOOOOOOOOOOoooooooooooooooooooooooooooo",
"oooooooooooooooooooooooooooooooooooooooooooooo..XXXXXXXX                XXXXXXXX..OOOOOOOOOOOOOOOOOOoooooooooooooooooooooooooooo",
"oooooooooooooooooooooooooooooooooooooooooooooo..XXXXXXXX      ..XXXXXXXXXXXXXXXX..OOOOOOOOOOOOOOOOOOOOOOoooooooooooooooooooooooo",
"oooooooooooooooooooooooooooooooooooooooooooooo..XXXXXXXX      ..XXXXXXXXXXXXXXXX..OOOOOOOOOOOOOOOOOOOOOOoooooooooooooooooooooooo",
"oooooooooooooooooooooooooooooooooooooooooooooo..XXXXXXXX    ..XXXXXXXXXXXXXXXXXX..OOOOOOOOOOOOOOOOOOOOOOOOoooooooooooooooooooooo",
"oooooooooooooooooooooooooooooooooooooooooooooo..XXXXXXXX    ..XXXXXXXXXXXXXXXXXX..OOOOOOOOOOOOOOOOOOOOOOOOoooooooooooooooooooooo",
"oooooooooooooooooooooooooooooooooooooooooooooo..XXXXXXXX    XXXXXXXXXXXXXXXXXXXX..OOOOOOOOOOOOOOOOOOOOOOOOoooooooooooooooooooooo",
"oooooooooooooooooooooooooooooooooooooooooooooo..XXXXXXXX    XXXXXXXXXXXXXXXXXXXX..OOOOOOOOOOOOOOOOOOOOOOOOoooooooooooooooooooooo",
"oooooooooooooooooooooooooooooooooooooooooooooo..XXXXXXXX    XXXXXXXXXXXXXXXXXXXX..OOOOOOOOOOOOOOOOOOOOOOOOoooooooooooooooooooooo",
"oooooooooooooooooooooooooooooooooooooooooooooo..XXXXXXXX    XXXXXXXXXXXXXXXXXXXX..OOOOOOOOOOOOOOOOOOOOOOOOoooooooooooooooooooooo",
"oooooooooooooooooooooooooooooooooooooooooooooo..XXXXXXXX  ....XXXXXXXXXXXXXXXXXX..OOOOOOOOOOOOOOOOOOOOOOOOoooooooooooooooooooooo",
"oooooooooooooooooooooooooooooooooooooooooooooo..XXXXXXXX  ....XXXXXXXXXXXXXXXXXX..OOOOOOOOOOOOOOOOOOOOOOOOoooooooooooooooooooooo",
"oooooooooooooooooooooooooooooooooooooooooooooo..XXXXXXXX                XXXXXXXX..OOOOOOOOOOOOOOOOOOOOOOOOoooooooooooooooooooooo",
"oooooooooooooooooooooooooooooooooooooooooooooo..XXXXXXXX                XXXXXXXX..OOOOOOOOOOOOOOOOOOOOOOOOoooooooooooooooooooooo",
"oooooooooooooooooooooooooooooooooooooooooooooo..XXXXXXXXXXXXXXXX..      XXXXXXXX..OOOOOOOOOOOOOOOOOOOOOOOOoooooooooooooooooooooo",
"oooooooooooooooooooooooooooooooooooooooooooooo..XXXXXXXXXXXXXXXX..      XXXXXXXX..OOOOOOOOOOOOOOOOOOOOOOOOoooooooooooooooooooooo",
"oooooooooooooooooooooooooooooooooooooooooooooo..XXXXXXXXXXXXXXXXXX      XXXXXXXX..OOOOOOOOOOOOOOOOOOOOOOOOoooooooooooooooooooooo",
"oooooooooooooooooooooooooooooooooooooooooooooo..XXXXXXXXXXXXXXXXXX      XXXXXXXX..OOOOOOOOOOOOOOOOOOOOOOOOoooooooooooooooooooooo",
"oooooooooooooooooooooooooooooooooooooooooooooo..XXXXXXXXXXXXXXXXXX..    XXXXXXXX..OOOOOOOOOOOOOOOOOOOOOOOOoooooooooooooooooooooo",
"oooooooooooooooooooooooooooooooooooooooooooooo..XXXXXXXXXXXXXXXXXX..    XXXXXXXX..OOOOOOOOOOOOOOOOOOOOOOOOoooooooooooooooooooooo",
"oooooooooooooooooooooooooooooooooooooooooooooo..XXXXXXXXXXXXXXXX....    XXXXXXXX..ooooooooOOOOOOOOOOOOOOOOoooooooooooooooooooooo",
"oooooooooooooooooooooooooooooooooooooooooooooo..XXXXXXXXXXXXXXXX....    XXXXXXXX..ooooooooOOOOOOOOOOOOOOOOoooooooooooooooooooooo",
"oooooooooooooooooooooooooooooooooooooooooooooo..XXXXXXXXXXXXXX..        XXXXXXXX..ooooooOOOOOOOOOOOOOOOOOOoooooooooooooooooooooo",
"oooooooooooooooooooooooooooooooooooooooooooooo..XXXXXXXXXXXXXX..        XXXXXXXX..ooooooOOOOOOOOOOOOOOOOOOoooooooooooooooooooooo",
"oooooooooooooooooooooooooooooooooooooooooooooo..XXXXXXXX                XXXXXXXX..ooooOOOOOOOOOOOOOOOOOOOOoooooooooooooooooooooo",
"oooooooooooooooooooooooooooooooooooooooooooooo..XXXXXXXX                XXXXXXXX..ooooOOOOOOOOOOOOOOOOOOOOoooooooooooooooooooooo",
"oooooooooooooooooooooooooooooooooooooooooooooo..XXXXXXXX    ..XXXXXXXXXXXXXXXXXX..ooOOOOOOOOOOOOOOOOOOOOOOoooooooooooooooooooooo",
"oooooooooooooooooooooooooooooooooooooooooooooo..XXXXXXXX    ..XXXXXXXXXXXXXXXXXX..ooOOOOOOOOOOOOOOOOOOOOOOoooooooooooooooooooooo",
"oooooooooooooooooooooooooooooooooooooooooooooo..XXXXXXXX    XXXXXXXXXXXXXXXXXXXX..OOOOOOOOOOOOOOOOOOOOOOOOoooooooooooooooooooooo",
"oooooooooooooooooooooooooooooooooooooooooooooo..XXXXXXXX    XXXXXXXXXXXXXXXXXXXX..OOOOOOOOOOOOOOOOOOOOOOOOoooooooooooooooooooooo"
};
