/* XPM */
static char *_c036309d90a45acfb85edcce4566365DkOGyt3dYIQvw7wW[] = {
/* columns rows colors chars-per-pixel */
"128 128 18 1 ",
"  c #5B5B5B",
". c #5D5D5D",
"X c gray39",
"o c #656565",
"O c #6A6A6A",
"+ c #6C6C6C",
"@ c #727272",
"# c #747474",
"$ c #797979",
"% c #7C7C7C",
"& c #808080",
"* c gray53",
"= c #888888",
"- c gray56",
"; c #939393",
": c gray59",
"> c #9B9B9B",
", c #9F9F9F",
/* pixels */
",,,,,,,,>>>>>>>>,,,,,,,,,,,,>>>>;;-----;>>>>,,>>::::::::::;;;;;;:;;;;;:::::;;;;:::;;;;;;>>>>>>>>-----------------------&.......X",
",,,,,,,,>>>>>>>>,,,,,,,,,,,,,,>>;;-;---;>>,,,,>>::::::::::::;;;;::;;;;::::;;;;;;::::;;;;>>>>>>>:-----------------------&......XX",
",,,,,,,,>>>>>>>>,,,,,,,,>>,,,,,>;;-;;;;;>>>>,,,>::::::::::::::::::::;:::;;;;;:::::::::;:>>>>>>>:-----------------------&........",
",,,,,,,,>>>>>>>>,,,,,,,,>,,,,,,>;;;;;;;;>>,>,,,>::::::::::::::::::::;:::;;;;;;::::::::::>>>>>>>:-----------------------&X..X....",
",,,,,,,,>>>>>>>>,,,,,,,,>>,,,,>>;;;;;;-;,,,>,,,,::::::::::::::::;;:::::::::;;;::;;::::::>>>>>>>>-----------------------&XX......",
",,,,,,,,>>>>>>>>,,,,,,,,>>,,>,>>;;;;;;-;,,>>>>>>>:::::::::::::;:;;::::::::::;;::;::;::::>>>>>>>>-----------------------&.X.....X",
",,,,,,,,>>>>>>>>,,,,,,,,>>>,>>>>;;-;---;,,,,>>>>>:::::::::::;;;;;;;;::::::::;;;:::;;;;;:>>>>>>>>-----------------------&.......X",
",,,,,,,>;:::::::>>>>>>>>>>>>>>::------=-;;;::::;;;;;;;;;;;----------;;------------------:::::::;=========--------===-==&.XXXXXXX",
",,,,,,,:=======================*$$$$$$%#OOOOOOOO@@@@@@@@@@@@@@@@@@@@@@@+OOOOOOOOOOOOOOOO&&&&&&&&&&&&&&&&&%%%%%%%%%%%%%%#XXXXXXXX",
",,,,,>,:*======================*$$$$$$$#OOOO++++@@@@@@@@@@@@@@@@@@@@@@@@OOOOOOOOOOOOOOOO%%&&&&&&&&&%%&&&%%%%&&&%%%%%%%%#XXXXXXXX",
">>,>>,>>=======================*$$$$$$$#+OOOOOO+@@@@@@@@@@@@@@@@@@@@@@@@OOOOOOOOOOOOOOO+%%%%&&&&&&%%%%&&%%%%&&&%$$$$%$$#XXXXXXXX",
">>,,>>>>=======================*$$$$$$$#OOOOOOO+@@@@@@@@@@@@@@@@@@@@@@@@OOOOOOOOOOOOOOO+%%%%&&&%&&%%%%&&%%%%&&&%$$$%%$$#XXXXXXXX",
">>>>,,,>=======================*$$$$$$$#OOOOOOO+@@@@@@@@@@@@@@@@@@@@@@@@OOOOOOOOOOOOOOO+%%&&&&%%&%%%%%%&&&&&&&&%%%%%$$$#XXXXXXXX",
">>>>,,>>=======================*$$$$$$$#OOOOOOO+@@@@@@@@@@@@@@@@@@@@@@@@OOOOOOOOOOOOOOO+%%&&%%%%&&%%%%%&&&&&%&%%%%$%$$$#XXXXXXXX",
",,,,,,,>=======================*$$$$$$$#OOOOOOO+@@@@@@@@@@@@@@@@@@@@@@@@OOOOOOOOOOOOOOO+%%%%%%%%%&%%%%%%&&%&%%%%%%$$$%$@XX..XXXX",
",,,,,>>:********&&&&*&&&&&&&&&&&#######@OOOOOOOO@+++++@@@@@@@@@@@@@@@@@+OOOOOOOOOOOOOOOO%%%%%%%%$$%%%%%%%&&%%%%&%$$$$$$@XX....XX",
";;---;;-$$$$$$$#........................ .......................................................OOOOOOO+##@@@@@@#######+........",
";;---;;=$$$$$$$#................................................................................++OOOOO+##@@@@@@#######+........",
";---;;;=$$$$$$$#................................................................................++OOOOO+##@@@@@@#######+........",
"----;;;=$$$$$$$#................................................................................++OOOOO+##@@@@@@#######+........",
";;;;;;;=$$$$$$$#................................................................................OOOOOOO+##@@@@@@#######@........",
";;;;;-;=$$$$$$$#................................................................................OOOOOOO+##@@@@@@#######+........",
";;;;--;=$$$$$$$#................................................................................OOOOOOO+######@@@@@@@##+.... ...",
";;;;;;;-$$$$$$$#........ooooooooXXXXXXXXXXXXXXXXXXXXXXXXXXXXXXoooooooooXXXXXXXXXooooooooooooooooOOOOOOO+$$$###$########+........",
":::::::;#@@@@@@@.......o>,,,,,,>::::::::::::::::::::::::>>>>>>>>:::::::;*******=>>>>>>>>>>>>>>>;XXXXXXXO-------=#######+..XX.XXX",
":::::::;@@@@@@@@.......o,,,,,,,,:::::::::::::::::::::>>>,,,,>>>>>>::::>:========>,,,>>>>>>>>>>,:X.....XO------;=#######@XXXX..XX",
":::::::;@@@@@@@@.......o,,,,,,,,::::::::::::::::::::::>>,,,,,>>>:>::::>:========>,,,,,>>,,,,>,,:X.....XO------;=#######@X.......",
":::::::;@@@@@@@@.......o,,,,,,,,::::::::::::::::::::::>>,,,,,>>>:>::::>:========>,,,,>>>,,,,>>,:X.....XO------;=#######@X.......",
":::::::;@@@@@@@@.......o,,,,,,,,:::::::::::::::::::::>>>,,,,,>,>>>::::>:========>,>>,,,,>,,,,,,:X.....XO------;=#######@X.......",
":::::::;@@@@@@@@.......o,,,,,,,,>:::::::::::::::::::::>>>,,,,,,>>>::::>:========>>>>,,,,>>,,,,,:X.....X+-------=#######@X.......",
":::::::;@@@@@@@@.......o,,,,,,,,>:::::::::::::::::::::>>>,>,>>,>>>::::>:========>,>>>>,,>>>>>>,:X....XX+-------=#######@X....XX.",
":::::::-@@@@@@@@.......o,,,,,,,,;;;;;;;;;;;;::::::::;;;:::::::::;:;;;;;-********:::::::::::::::-XX....X+-------=#####$$@....XXXX",
";;:::;;-+OOOOOOO.......o,,,,,,,>#@@@@@@#&&&&&&%%%%&&&&%%$$$$$$$$$$$$$$$$###############@+++++++OXX....XO------;=$$$$$$$@........",
";;:::;;=OOOOOOOO.......o,,,,,,,>@@@@@@@#%%%%&&%%%%%%%%%%$$$$$$$$$$$$$$$$#########@@@@@@@+OOOOOOOXX....XO------;=$$$$$$$@ .......",
";;::::;=OOOOOOOO.......o,,,,,,,>#@@@@@@#%%%%&%%%&&&&%&%%$$$$$$$$$$$$$$$$#@@@@@@@@@@@@@@@OOOOOOOOXX....XO-------=$$$$$$$@........",
";;:::::-OOOOOOOO.......o,,,,,,,>#@@@@@@#%%%%&&%%&&&&%%%%$$$$$$$$$$$$$$$$#@@@@@@@@@@@@@@@OOOOOOOOXX....XO-------=$$$$$$$@........",
";::::::-OOOOOOOO.......o,,,,,,,>#@@@####&&&%%%%%&&%%&&%%$$$$$$$$$$$$$$$$#@@@@@@@####@@@@OOOOOOOOX.....XO-------=$$$$$$$@........",
";::::::-OOOOOOOO.......o,,,,,,,>#@@@####&&%%%%%%%%%%&&%%$$$$$$$$$$$$$$$$#@@@@@@@####@@@@OOOOOOOOX.....XO-------=$$$$$$$@........",
":::::::=ooOOOOOO.......o,,,,,,,>#@@@@@@#&&&&%%%%%%%%&&%%$$$$$$$$$$$$$$$$#@@@@@@@#@##@@@@OOOOOOOOXX....XO-------=$$$$$$$@........",
";;;;;;;=OO+++++O.......o>,,,,,,:@@@@@@@#%%%%%%%%%%%%%%%%########$$$$$$$########@########+O+++++OX......O;;;;;;;=$$$$$$$@........",
";;;;;;;-@@@@@@@+.......X--;;;;;-+++++++++@@@@@@@++OOO+++OO++OOO+@@@@@@@#########%%%%&&&%#@####@+.      O>,,,,,>;@@@@@@@+X.XXXXXX",
";;;;;;;-#@@@@@@@.......X-;----;=+++++++++@@@@@@+++++++++OO+OOOO+@@@@############%%%%&&&%##@@@@@+.      O>,,,>,>;@@@@@@@+XXXXXXXX",
";;;;;;;-@@@@@@@@.......X-;;;;--=+++++@@@@@@@@@@+++++++++OOOOOOO+@@#@############&&%%%%%%#@@@@@@+.     .O>,>>>>>;@@@@##@+..XXXXXX",
";;;;;;;-@@@@@@@@.......X--;;---=+++++@@@@@@@@@@+++++++++OOOOOOO+@@##############&&&&%%%%#@@@@@@+.     .O>,,>>>>;@@@@#@@+..XXXXXX",
";;;;;;;-@@@@@@@@.......X--;;;;-=++@@@+++@@@@@@@+++++++++OOOOOOO+@@##########@###&&%%%%&%#@@@@@@+.     .O>>>>,,>;@@@@###@..XXXXXX",
";;;;;;;-@@@@@@@@.......X--;;;--=++@@++++++@@@@++++++++++OOOOOOO+@@##############&&%%&%&%#@@@@@@+.     .O>>>>,,>;@@@@##@@..XXXXXX",
";;;;;;;-@@@@@@@@.......X-----;-=++@@++++@@@@@@@+++OOOOOOOOOOOOO+@########@@@@@@#&&%%&&&%@@@@@@@+.     .O>>,,,,>;@@@@@@@+..XXXXXX",
";;;;;;;=@@@@@@+@.......X;;;;;;;-#@#####@++++++++OOOOOOOOoooooooO+++++++@$%%%%%%$%&%%&&&%@@@@@@@+.     .O>,,,,,>;#######@..XXXXXX",
"-------*OOOOOOOO.......X:>>>>>>:&&&&%%%$+++++++O............... .......o;;;;;;;-&&%%&&&%OOOOOOOO      .O>,,>>>>;$$$$$$$@XXXXXXXX",
"-------*OoOOOOOO.......X:>>>>>>:&&&&%%%%+++++++O ......................o;;;;--;-&%%%&&&%OOOOOOOO      .O>,,,>>>;$$$$$$$@XXXXXXXX",
"-------*OoOOOOOO.......X:>>>>>>;&&&&%%&%O++++++O ......................o;;;;--;-&&%%%%&%OOOOOOOO      .O>,,,,,>;$$$$$$$@XXXXXXXX",
"-------*OoOOOOOO.......X:>>>>>>;&&%%%%&%O++++++O ......................o;;;;--;-&&%%%%&%OOOOOOOO      .O>,,,,>>;$#$$$$$@XXXXXXXX",
"-------*OOOOOOOO.......X:>>>>>>;&%%%%&&%O++++++O ......................o;--;;;;-&&&&%%&%OOOOOOOO      .O>,,,,,,;$$$$$$$@XXXXXXXX",
"-------*OOOOOOOO.......X:>>>>>>;&%%%&&&%+++++++O ......................o;---;;;-&&%&%%%%OOOOOOOO      .O>,,,,,,;$$$$$$$@XX..X.XX",
"====---*OoOOOOOO.......X:>>>>>>:&&%%%%%%+++++++O ......................o----;;;-&&&&&%%%OOOOOOOO      .O>,>>>>,;$$$$$$$@XX......",
"-----;;=+OOOOOOO.......X:::::::;$$$$$$$$+++++++O ......................o;;;;;;;;%%%%%%%$OOOOOOOO      .O>,>>>>>;$$$$$$$@XX......",
":::::::;@@@@@@@@.......X---;;;-=@@+++++++++++++O ..........XXXXX.......o>>>>>>>:###@@@@@OOOOOOOO      .O>,,,,,,;$$#$$$$@........",
":::::::;@@@@@@@@.......X---;;--=@@++++@++++++++O ...........XX.........o>>>>>>>:###@@@@@OOOOOOOO      .O>>>,,,>;$$$$$$#@........",
":::::::;@@@@@@@@.......X--;;;;-=@+++@@@++++++++O ..............X.......o>>>>>>>:###@@@@@OOOOOOOO      .O>>>,>>>;$$$$$$$@........",
":::::::;@@@@@@@@.......X--;;;;;=@+++@@@++++++++O ..............X.......o>>>>>>>:###@@@@@OOOOOOOO      .O>>,,>>>;$$$$$$$@........",
":::::::;@@@@@@@@........--;;;;;=++++@++++++++++O .......X......X.......o>>>>>>>:####@@@@OOOOOOOO      .O>,>,>,,;$$$$$$$@........",
":::::::;@@@@@@@@........--;;;;;=++++@@+++++++++O .......X.X....X.......o>>>>>>>:####@@@@OOOOOOOO      .O>>>>>>,;$$$$$$$@........",
":::::::;@@@@@@@@........-;;;;;;=+++@+++++++++++O .......XX.....X.......o>>>>>>>:#####@@@OOOOOOOO      .O>>>>,,,;$$$$$$$@........",
":::::::-++@@@@@@........-;;;;;;-@+@@@@@@@@++++@O .......XX.............o::::>>::########OOOOOOOO      .O::>>>>>-$$$$$$$@........",
"-------*OOOOOOOO........-;-;----$$$$$$$$$$$$$$$@.......................o--;;;;--&&&&&&&%OOOOOOOO      .o---;;;-=$$$$$$$@......XX",
"-------*OOOOOOOO.......X-;;;----$$$$$$$$$$$$$$$@.......................o;-;;;;--%%%%%&&%OOOOOOOO      .O;------=$$$$$$$@.X....XX",
"-------*OOOOOOOO.......X-;;;;;--$$$$$$$$$$$$$$$@.......................o;----;;-%&&%%&&%+OOOOOOO       o;------=$$#$$$$@.X.....X",
"-------*OOOOOOOO.......X-;;;;---$$$$$$$$$$$$$$$@.......................o;-----;-&&&%%&&%+OOOOOOO       o;------=$$##$$$@.X....XX",
"-------*oOOOOOOO.......X-;;;;;--$$$$$$$$$$$$$$$@............   ........o;;;;--;-&&&%%%&%OOOOOOOO       o;-----;=$$$#$$$@.X......",
"-------*oOOOOOOO.......X-;;;;;;=$$$$$$$$$$$$$$$@.............  ........o;;-;--;-&&&%&%&%OOOOOOOO       o;-----;=$$$$$$$@.X......",
"-------*OOOOOOOO.......X-;;;---=$$$$$$$$$$$$$$$@.......................o;;-;-;;-%&&%&&&%OOOOOOOO       o;------=$$$$$$$@.XXX....",
"-------*OOOOOOOO.......X--;----=#######$$$$$$$$#Xoooooooooooooooooooooo@;-;----;$%%%%%%%OOOOOOOO       o;;;--;;=$$$$$$$@XXXXXX..",
";;;;:::=OOOOOOOO.......X--;;;--=@@@@@@+@$$$$$$$&::::::::::>>>>::::::::::;;;;;;;;####@@@@OOOOOOOO       O:::::::;#######@.X......",
";;;;::;=OOOOOOOO.......X--;;;;-=@@@@@@+@$$$$$$$&::::::::>>>>>>>>::::::::;;;;;;--@@@@@@@@OOOOOOOO       O:::::::;#######+........",
"::;;::;=oOOOOOOO.......X--;;---=+++++++@$$$$$$#&::::::::>>>>>>>>::::::::--;;;;--@@@@@@@@OOOOOOOO       O:::::::-#######@........",
"::;;:::-oOOOOOOO.......X--;;;--=+++++++@$$$$$$$&::::::::>>>>>>>>::::::::--;;;;--@@@@@@@@OOOOOOOO       O:::::::-#######@........",
"::;;;::-oOOOOOOO.......X-;;;;;;=+++++++@$$$$$$#&::::::::>>>>>>>>::::::::--;;;;--@@@@@@@@OOOOOOOO       O:::::::-#######@........",
"::;;:::=OOOOOOOO.......X---;;;;=+@+++++@$$$$$$$&::::::::>>>>>>>>::::::::;-;;----@@@@@@@@OOOOOOOO       O:::::::-#######@........",
":::;:::=OOOOOOOO........--;;-;;=@@+++++@$$$$$$#&:::::::::>>>>>>>::::::::;--;----@@@@@@@@OOOOOOOO       O:::::::-#######+ .......",
":::::::=O+OOOOOO.......X-;;;;;;-@@@@@@@+$$$$$$#&;:::::::::::>::::::::::;-------=@##@@@@@OOOOOOOO       O::>::::-$$$$###@........",
":::::::;@@@@@@@@.......o>,>>>>>:#@@@@@@#$$$$$$$%=======&#######$=======*@#######@@@@@##@OOOOOOOO       O:::::::-$$$$$%%#XX...XX.",
":::::::;@@@@@@@@.......o>,,,>>>:#@@@@@@#$$$$$$$%=======*###@@@@$=======*@@@@@@@##@@@@@#@OOOOOOOO       O:::::::-$$$$$$$@XX...XX.",
":::::::;@@@@@@@@.......o>,,,,,>:#@@@@@@#$$$$$$$%=======*###@@@@$=======*@@@@@@@####@@@@@OOOOOOOO       O:::::::-$$$$$$$@XX......",
":::::::;@@@@@@@@.......o>,,,,,>:#@@@@@@#$$$$$$$%=====*=*@@@@@@@$=======&@@@@@@@@@@@@@@@@OOOOOOOO       O:::::::-$$$$$$$@XX......",
":::::::;@@@@@@@@.......o>,,,,,,:#@@@@@@#$$$$$$$%=======*@@@@@@@$=======&@@@@@@@@@@@@@@@@OOOOOOOO       O:::::::-$$$$$$$@........",
":::::::;@@@@@@@@.......o>,,,,,,:#@@@@@@#$$$$$$$%=======*@@@@@@@#=======&#@@@@@@@@@@@@@@@OOOOOOOO       O:::::::-$$$$$$$@........",
":::::>>;@@@@@@@@.......o>,>>>>>:#@@@@@@#$$$$$$$%=======&@@@@@@@#=======*#@@@@@@@@@@@@@@@OOOOOOOO       O:::::::-$$$$$$$#......XX",
">>>>>>>;@@@@@@@@.......o>,>>>>>:@@@@@@@@$$$$$$$%*******&@@@@@@@#*******%@@@@@@@@@@@@@@#@OOOOOOOO       o:::::::-$$$$$$$#....XXX.",
",,>>>>>;##@@@@@@.......o>,>,,,,:OOOOOOOO@@@@@@@@@@@@@@@@OOOOOOoOOOOOOOOOOOOOOOOOOOOOOOOOOOOOOOOO       o;;;;---=#####$$@..X.X.XX",
",,,>>>>;##@@@@@@.......o>>>>,,,:OOOOOOOO@@@@@@@@@@@@@@@@OOOOOOOOOOOOOOOOOOOOOOOOOOOOOOOOOOOOOOOO       o-------=#######@......X.",
",,,>,,,:##@@@@@@.......o>>>>>>,:OOOOOOOO@@@@@@@@@@@@@@@@OOOOOOOOOOOOOOOOOOOOOOOOOOOOOOOOOOOOOOOO       o-------=#######@........",
",,,>,,,:##@@@@@@.......o>>>>>>,:OOOOOOOO@@@@@@@@@@@@@@@@OOOOOOOOOOOOOOOOOOOOOOOOOOOOOOOOOOOOOOOO       o-------=#######@........",
",,,,,,,;##@@@@@@.......o>>,>>>>:OOOOOOOO@@@@@@@@@@@@@@@@OOOOOOOOOOOOOOOOOOOOOOOOOOOOOOOOOOOOOOOO       o-------=#######@........",
",,,,,,>;#@@@@@@@.......o>>,,>>>:OOOOOOOO@@@@@@@@@@@@@@@@OOOOOOOOOOOOOOOOOOOOOOOOOOOOOOOOOOOOOOOo       o-----;;=#######@........",
",,>,>>>;#@@@@@@@.......o>>,,,,,:OOOOOOOO@@@@@@@@@@@@@@@@OOOOOOOOOOOOOOOOOOOOOOOOOOOOOOOOOOOOOOOo       o----;;;=#######@..XX....",
">>>>>>>;#######@XXXXX..o-;;;;;;=OOOooooO++++++++++++++++OOOooOOOOOOOoooooOOOOOOOOOOOOOOOOOOOOOOX       o-;;;;;;=#######@.XXXXX..",
";;;;;;;-$$$$$$$#OOOOOOOO..........        .............                                        .       O:::>>>:-#######+........",
";;;;;;;-$$$$$$$$OOOOOOOO........                                                                       O:::>>>>-#######+........",
"::;;:::-$$$$$$$$OOOOOO+O........                                                                       O:::::>>-@@@@@@@+........",
":;;;;;:-$$$$$$$$OOOOOOOo........                                                                       O::::::>-@@@@@@@+........",
"::;;;;:-$$$$$$$$OOOOOOOo........                                                                       O:::::>>-@@@@##@+........",
"::;;;;:-$$$$$$$$OOOOOOOo........                                                                       O:::::::-@@@@@#@+........",
":::::::-$$$$$$$$OOOOOOOo........                 ...................                                   O:::::::-@@@@##@+........",
":::::::;%$%%%%%$@@@@@@@+OOOOOOOOOOOOOOOoooooooooOOOOOOOOOOOOOOOOooooooooooooooOOooooooooOOOOOOOOOOOOOOO@:;;;;;;=@@@###@+........",
";;;;;::;**=============-:::::>>::::::::;*******->>>>>>>>>>>>>>>:;------;;::::::-*******=::::::::::::::::&&*****&@@@@@@@+..XXXXXX",
";;;;;::;================>::::::::::::::;=======-,,,,>,>>>>,,>>>:-------;::::::::***=====:>>>>::::::::::;&&****&&@@@@@@@+..XXXXXX",
";;;;;;:;================>::::::::::::::;=======-,,>>>>>>>>,,,,>:-------;::::::::***=====:>>>>::::::::::;&&&*&&&&@@@@@#@@..XXXXXX",
";;;;;;;;================:::::::::::::::;=======-,>>>>>>,>>,,,,>>-------;::::::::***=====:>>::::::::::::;&&&&&&&%@@@@@@@+..XXXXXX",
";;;;;;;;================::::::::::::::::*======-,>>>>>>>>>>,,,,>--------::::::::*=======:>:::::::::::::;&&&&&&&&@@@@@@@+..XXXXXX",
";;;;;;;;================::::::::::::::::=======-,,>>>>>>>>,,,,,>--------::::::::========:>:::>::::::>>:;&&&&&&*&@@@@@@@+..XXXXXX",
";;;;;;;;================:::::::::::::::;========,,,,,,,,,,,,,,,>--------::::::::========:>::>>>>::::>>>:&&&&***%#######@XXXXXXXX",
";;;;;;;-*&&&&&&&*******=;;;;;;;;--------*&&&***=;;;;;;;;;;;;;;;-========--------&&&&&&&*----------------&&&&&&&%#######@XXXXXXXX",
"=======*#@######$$$$$$$$$$$$$$$###################@@@@@@@@@@@@@@@@@@@@@@@@@@@@@@@@@@@@@@########@@@@@@##$$$$$$$$$$$$$$$@XXXXXXXX",
"=======*#@######$$$$$$$$$$$$$$$#####################@@@@@@@@@@@@@@@@@@@@@@@@@@@@@@@@@@#@########@@@@@@@#$$$$$$$$$$$$$$$@XXXXXXXX",
"=======*#@######$$$$$$$$$$$$$$$#####################@@@@@@@@@##@@@@@@@@@@@##@@@@@@@@@@##########@@@@@@@#$$$$$$$$$$$$$$$@XXXXXXXX",
"=======*#@######$$$$$$$$$$$$$#$#####################@@@@#@@@@#@@@@@@@@@@####@@@@@#@@@@@@########@@@@#@@#$$$$$$$$$$$$$$$@XXXXXXXX",
"=======*#@######$$$$$$$$$$$$$$$##################@@@@@@@@@@@@@@@####@@#@@@@#@@@@####@@@@##########@@#@@#$$$$$$$$$$$$$$$@XXXXXXXX",
"=======*#@######$$$$$$$$$$$$$$$$##################@@@@@@@@@@@@@@###@@@#@@@@#@@@@###@@@@############@@@@#$$$$$$$$$$$$$$$@XXXXXXXX",
"=======*#@######$$$$$$$$$$$$$$$$##################@#@@@@@@@@@@@@##@@@@@@@@@@@#@@##@@@@@###########@@@@@#$$$$$$$$$$$$$$$@XXXXXXXX",
"%&&&&&&%++++++@@########@@@@@@@@@@@@@@@@@@@@@@@@+++++++++++++++++@+++++++++++@++++++++++@@@@@@@@@@+++++@@@@@@@@@@@@@@@@+XXX.XXXX",
"....   .........XXXXXXXX.XXXX...XXXX.............................XXXXXX..XXX.X......XXX..X.....XX......X........................",
"................XXXXXXXX.........................................XXXXXXXXXXXXX......X.XX......XX......XX........................",
"................XXXXXXXX.......X..X...X...............................XX......XXXX..............................................",
"................XXXXXXXX.......X....XXX...............................XX.......XX.......X.......................................",
"..............X.XXXXXXXX......XX..X...................................XX......XXXX......X....X...X............XX................",
"................XXXXXXXX......XX..XX..............................XX..........XXXX...........X..XX.....X......XX................",
"..............X.XXXXXXXX.XXX.......X..............................XX......XX........XXX.X....XX.XX....XXXXX....X................",
"................XXXXXXXX.XXX......XX..............................XX......X....X....XX......XXX.XX....XXXXXX...................."
};
